<?xml version="1.0" encoding="UTF-8"?>
<svg width="34px" height="37px" viewBox="0 0 34 37" version="1.1" xmlns="http://www.w3.org/2000/svg" xmlns:xlink="http://www.w3.org/1999/xlink">
    <!-- Generator: Sketch 52.4 (67378) - http://www.bohemiancoding.com/sketch -->
    <title>Group 7</title>
    <desc>Created with Sketch.</desc>
    <g id="Page-1" stroke="none" stroke-width="1" fill="none" fill-rule="evenodd">
        <g id="Artboard" transform="translate(-1184.000000, -1572.000000)" fill="#FFFFFF">
            <g id="Group-7" transform="translate(1184.000000, 1572.000000)">
                <path d="M20.7323,17.7817 C20.7323,17.0917 20.1723,16.5317 19.4823,16.5317 C18.7923,16.5317 18.2323,17.0917 18.2323,17.7817 C18.2323,18.4717 18.7923,19.0317 19.4823,19.0317 C20.1723,19.0317 20.7323,18.4717 20.7323,17.7817" id="Fill-1"></path>
                <path d="M15.2489,17.7817 C15.2489,17.0917 14.6889,16.5317 13.9989,16.5317 C13.3089,16.5317 12.7489,17.0917 12.7489,17.7817 C12.7489,18.4717 13.3089,19.0317 13.9989,19.0317 C14.6889,19.0317 15.2489,18.4717 15.2489,17.7817" id="Fill-3"></path>
                <path d="M16.7919,34.5942 L16.6859,34.5942 C14.2269,34.5772 11.9369,32.9472 10.9709,30.5342 L12.0709,30.2792 C12.7299,30.1272 13.2459,29.6012 13.3879,28.9402 L13.7699,27.1542 C14.6469,27.4882 15.6399,27.6972 16.7989,27.6972 C17.8929,27.6972 18.8359,27.5122 19.6739,27.2132 L20.0449,28.9322 C20.1869,29.5842 20.6959,30.1062 21.3439,30.2632 L22.4909,30.5412 C21.5259,32.9472 19.2479,34.5742 16.7919,34.5942 M9.4489,17.4032 C10.1499,17.2382 10.9449,16.9222 11.7969,16.3462 C14.2699,14.6772 15.8969,12.6142 16.7319,11.3812 C17.5659,12.6142 19.1939,14.6772 21.6669,16.3462 C22.5199,16.9222 23.3129,17.2382 24.0149,17.4032 C23.7609,20.4812 22.5179,26.1972 16.7989,26.1972 C11.0779,26.1972 9.7489,20.4872 9.4489,17.4032 M7.5099,15.3922 C7.4919,12.3412 8.2949,7.5372 13.1249,5.6542 C13.7069,6.6682 14.7459,7.4122 15.9939,7.6242 L15.9939,9.7402 C15.6359,10.3602 13.9509,13.0832 10.9569,15.1032 C9.5269,16.0692 8.4099,16.1202 8.0159,16.0112 C7.7329,15.9332 7.5119,15.6612 7.5099,15.3922 M16.7269,1.5002 C18.1629,1.5002 19.3319,2.5522 19.3319,3.8472 C19.3319,5.1412 18.1629,6.1942 16.7269,6.1942 C15.2899,6.1942 14.1209,5.1412 14.1209,3.8472 C14.1209,2.5522 15.2899,1.5002 16.7269,1.5002 M20.3299,5.6502 C25.1669,7.5312 25.9719,12.3392 25.9539,15.3922 C25.9519,15.6612 25.7299,15.9332 25.4479,16.0112 C25.0539,16.1182 23.9379,16.0692 22.5069,15.1032 C19.5749,13.1252 17.8989,10.4712 17.4939,9.7802 L17.4939,7.6212 C18.7289,7.4012 19.7539,6.6572 20.3299,5.6502 M30.1549,29.8852 C27.7289,29.5662 25.3059,29.1492 24.3769,28.9842 C23.9959,28.9192 23.6119,28.9972 23.2909,29.1912 L21.6969,28.8052 C21.6029,28.7822 21.5319,28.7102 21.5119,28.6152 L21.0639,26.5412 C24.4609,24.4082 25.3039,19.8452 25.5069,17.5232 C25.6289,17.5072 25.7429,17.4852 25.8469,17.4572 C26.7719,17.2022 27.4479,16.3372 27.4539,15.4012 C27.4709,12.5432 26.7479,6.4742 20.7909,4.2272 C20.8049,4.1002 20.8319,3.9772 20.8319,3.8472 C20.8319,1.7252 18.9899,0.0002 16.7269,0.0002 C14.4629,0.0002 12.6209,1.7252 12.6209,3.8472 C12.6209,3.9782 12.6479,4.1032 12.6619,4.2312 C6.7149,6.4812 5.9929,12.5452 6.0099,15.4022 C6.0159,16.3372 6.6909,17.2022 7.6169,17.4572 C7.7199,17.4852 7.8339,17.5072 7.9549,17.5232 C8.1859,19.8092 9.0659,24.2912 12.3839,26.4612 L11.9209,28.6262 C11.8999,28.7202 11.8269,28.7962 11.7329,28.8182 L10.1619,29.1822 C9.8439,28.9942 9.4629,28.9202 9.0879,28.9842 C8.1519,29.1502 5.7159,29.5692 3.3089,29.8852 C0.2619,30.2842 -0.1591,33.3812 0.0429,34.9632 C0.0959,35.3742 0.4779,35.6622 0.8799,35.6112 C1.2899,35.5602 1.5809,35.1852 1.5309,34.7752 C1.5159,34.6482 1.1789,31.6772 3.5039,31.3722 C5.8849,31.0602 8.2909,30.6482 9.3389,30.4902 L9.5579,31.0472 C10.7369,34.0452 13.5979,36.0732 16.6719,36.0942 L16.8069,36.0942 C19.8919,36.0692 22.7499,34.0312 23.9199,31.0212 L24.1359,30.4652 C25.0899,30.6342 27.5209,31.0522 29.9599,31.3722 C32.2839,31.6772 31.9479,34.6462 31.9329,34.7752 C31.8809,35.1852 32.1709,35.5592 32.5809,35.6122 C32.9969,35.6602 33.3679,35.3742 33.4209,34.9632 C33.6229,33.3812 33.2019,30.2842 30.1549,29.8852" id="Fill-5"></path>
            </g>
        </g>
    </g>
</svg>